<?xml version="1.0" encoding="UTF-8"?>
<svg id="Layer_1" xmlns="http://www.w3.org/2000/svg" version="1.1" viewBox="0 0 800 800">
  <!-- Generator: Adobe Illustrator 30.1.0, SVG Export Plug-In . SVG Version: 2.1.1 Build 136)  -->
  <defs>
    <style>
      .st0 {
        fill: #fff;
      }
    </style>
  </defs>
  <path class="st0" d="M200,725c-50.5,0-91.7-41.1-91.7-91.7s41.1-91.7,91.7-91.7,77.3,28.2,88.2,66.7h378.5c13.8,0,25,11.2,25,25s-11.2,25-25,25h-378.5c-10.9,38.4-46.3,66.7-88.2,66.7ZM200,591.7c-23,0-41.7,18.7-41.7,41.7s18.7,41.7,41.7,41.7,41.7-18.7,41.7-41.7-18.7-41.7-41.7-41.7ZM600,491.7c-41.9,0-77.3-28.2-88.2-66.7H133.3c-13.8,0-25-11.2-25-25s11.2-25,25-25h378.5c10.9-38.4,46.3-66.7,88.2-66.7s91.7,41.1,91.7,91.7-41.1,91.7-91.7,91.7ZM600,358.3c-23,0-41.7,18.7-41.7,41.7s18.7,41.7,41.7,41.7,41.7-18.7,41.7-41.7-18.7-41.7-41.7-41.7ZM400,258.3c-41.9,0-77.3-28.2-88.2-66.7h-178.5c-13.8,0-25-11.2-25-25s11.2-25,25-25h178.5c10.9-38.4,46.3-66.7,88.2-66.7s77.3,28.2,88.2,66.7h178.5c13.8,0,25,11.2,25,25s-11.2,25-25,25h-178.5c-10.9,38.4-46.3,66.7-88.2,66.7ZM358.3,166.7c0,23,18.7,41.7,41.7,41.7s41.7-18.7,41.7-41.7-18.7-41.7-41.7-41.7-41.7,18.7-41.7,41.7Z"/>
</svg>